<svg width="22" height="22" viewBox="0 0 22 22" fill="none" xmlns="http://www.w3.org/2000/svg">
<g clip-path="url(#clip0)">
<path d="M22 11C22 17.0751 17.0751 22 11 22C4.92486 22 0 17.0751 0 11C0 4.92486 4.92486 0 11 0C17.0751 0 22 4.92486 22 11Z" fill="#3342AE"/>
<path d="M20.5992 18.7882C20.5992 19.9923 19.623 20.9685 18.4189 20.9685C17.2147 20.9685 16.2386 19.9923 16.2386 18.7882C16.2386 18.7088 16.2428 18.6305 16.2511 18.5533C15.9733 18.6816 15.664 18.7532 15.338 18.7532C14.1338 18.7532 13.1577 17.777 13.1577 16.5728C13.1577 16.503 13.161 16.4339 13.1674 16.3657C12.498 16.6363 11.7664 16.7854 11 16.7854C9.81609 16.7854 8.71523 16.4297 7.79841 15.8195C7.80739 15.9189 7.81195 16.0196 7.81195 16.1213C7.81195 17.9536 6.32656 19.439 4.4942 19.439C2.66184 19.439 1.17646 17.9536 1.17646 16.1213C1.17646 14.2889 2.66184 12.8035 4.4942 12.8035C4.86777 12.8035 5.2269 12.8653 5.56197 12.9791C5.33721 12.3616 5.21457 11.6951 5.21457 11C5.21457 10.3814 5.31168 9.78553 5.49142 9.22672C5.42606 9.2296 5.36032 9.23111 5.29424 9.23111C2.87669 9.23111 0.91684 7.2713 0.91684 4.85371C0.91684 2.43616 2.87664 0.476309 5.29424 0.476309C7.71183 0.476309 9.67163 2.43611 9.67163 4.85371C9.67163 5.03014 9.66119 5.20416 9.64087 5.37513C10.0768 5.2702 10.5319 5.21456 11 5.21456C11.0095 5.21456 11.019 5.2146 11.0286 5.21464V5.21456C11.0286 3.74541 11.9835 2.49928 13.3066 2.06302C13.3675 0.91343 14.3189 0 15.4838 0C16.6879 0 17.664 0.976164 17.664 2.18028C17.664 2.68696 17.4912 3.1533 17.2013 3.52348C17.4953 4.0187 17.664 4.59693 17.664 5.2146C17.664 6.44407 16.9953 7.51734 16.0017 8.0905C16.4999 8.94523 16.7854 9.93927 16.7854 11C16.7854 12.2784 16.3708 13.4599 15.6686 14.4175C16.7158 14.5768 17.5182 15.4811 17.5182 16.5729C17.5182 16.6522 17.514 16.7306 17.5057 16.8078C17.7835 16.6795 18.0928 16.6079 18.4189 16.6079C19.623 16.6079 20.5992 17.5841 20.5992 18.7882V18.7882Z" fill="#3D4EC6"/>
<path d="M19.0503 18.9634C19.0115 19.0353 18.9375 19.0762 18.8611 19.0762C18.8266 19.0762 18.7917 19.0679 18.7592 19.0503L14.8822 16.9548C14.836 16.9298 14.8005 16.8888 14.7825 16.8395L12.9594 11.851L8.24855 8.47952L5.57362 14.821C5.56279 14.8466 5.54719 14.8698 5.52756 14.8894L2.39999 18.017C2.35805 18.059 2.30305 18.0799 2.2481 18.0799C2.19314 18.0799 2.1381 18.059 2.0962 18.017C2.01228 17.9331 2.01228 17.7971 2.0962 17.7132L5.19408 14.6153L7.907 8.18372L4.17791 2.73322C4.11092 2.6353 4.13597 2.50158 4.23394 2.43459C4.33191 2.3676 4.46563 2.39274 4.53257 2.49062L8.19394 7.84225L14.5608 5.20418L15.0625 1.24818C15.0775 1.13044 15.1848 1.04661 15.3027 1.06208C15.4204 1.07699 15.5037 1.18454 15.4888 1.30223L14.9714 5.38194C14.9616 5.45843 14.9117 5.52391 14.8405 5.55339L8.54384 8.16241L13.2634 11.5402C13.2986 11.5654 13.3253 11.6006 13.3402 11.6412L15.1581 16.6156L18.9635 18.6723C19.0679 18.7287 19.1068 18.859 19.0503 18.9634Z" fill="#717ED6"/>
<path d="M15.331 2.54664L15.16 3.89427C15.1464 4.0016 15.0551 4.08208 14.9469 4.08208C14.8175 4.08208 14.7175 3.96856 14.7338 3.84021L14.9047 2.49263C14.9183 2.38529 15.0096 2.30481 15.1178 2.30481C15.2472 2.30477 15.3472 2.41829 15.331 2.54664V2.54664ZM10.5172 7.34474L13.1155 6.26816C13.1958 6.2349 13.2481 6.15657 13.2481 6.06969C13.2481 5.91659 13.0925 5.81261 12.9511 5.87122L10.3528 6.9478C10.2725 6.98106 10.2202 7.05939 10.2202 7.14627C10.2202 7.29941 10.3758 7.40335 10.5172 7.34474ZM13.3402 11.6412C13.3253 11.6006 13.2986 11.5654 13.2634 11.5402L10.7136 9.71533C10.5714 9.61358 10.3738 9.7152 10.3738 9.89V9.89004C10.3738 9.95935 10.4072 10.0244 10.4636 10.0647L12.9054 11.8123C12.9406 11.8375 12.9673 11.8727 12.9822 11.9133L13.9674 14.6093C13.9984 14.694 14.079 14.7504 14.1692 14.7504C14.3184 14.7504 14.4222 14.602 14.371 14.4618L13.3402 11.6412ZM17.3701 17.8112L16.5491 17.3674C16.406 17.2901 16.2321 17.3937 16.2321 17.5564C16.2321 17.6353 16.2754 17.7079 16.3448 17.7454L17.1658 18.1891C17.3089 18.2665 17.4828 18.1628 17.4828 18.0001C17.4828 17.9212 17.4395 17.8487 17.3701 17.8112ZM7.0004 6.69308C7.17317 6.69308 7.27527 6.49955 7.17773 6.35693L5.6853 4.17554C5.64525 4.11702 5.57891 4.082 5.50801 4.082H5.50796C5.33523 4.082 5.23314 4.27553 5.33067 4.41814L6.82311 6.59954C6.86316 6.6581 6.9295 6.69308 7.0004 6.69308V6.69308ZM7.60471 9.23829C7.5183 9.23829 7.44031 9.29003 7.40675 9.36965L5.81549 13.1421C5.75576 13.2837 5.85975 13.4404 6.01345 13.4404H6.01349C6.09986 13.4404 6.17785 13.3887 6.21145 13.3091L7.80271 9.53662C7.86239 9.395 7.75841 9.23829 7.60471 9.23829V9.23829Z" fill="#A6AEE5"/>
<path d="M3.417 9.96408C3.52365 10.1343 3.66751 10.2782 3.83775 10.3848C3.86925 10.4046 3.86925 10.4505 3.83775 10.4702C3.66751 10.5769 3.52365 10.7207 3.417 10.891C3.39728 10.9225 3.35134 10.9225 3.33162 10.891C3.22497 10.7207 3.08111 10.5769 2.91087 10.4702C2.87937 10.4505 2.87937 10.4046 2.91087 10.3848C3.08111 10.2782 3.22497 10.1343 3.33162 9.96408C3.35139 9.93259 3.39728 9.93259 3.417 9.96408ZM19.4294 14.287C19.3227 14.4572 19.1789 14.6011 19.0086 14.7077C18.9771 14.7274 18.9771 14.7734 19.0086 14.7931C19.1789 14.8997 19.3227 15.0436 19.4294 15.2138C19.4491 15.2453 19.495 15.2453 19.5147 15.2138C19.6214 15.0436 19.7653 14.8997 19.9355 14.7931C19.967 14.7734 19.967 14.7274 19.9355 14.7077C19.7653 14.6011 19.6214 14.4572 19.5147 14.287C19.495 14.2555 19.4491 14.2555 19.4294 14.287ZM2.37385 8.69401C2.2672 8.86013 2.12334 9.00051 1.9531 9.10458C1.9216 9.12383 1.9216 9.1686 1.9531 9.18789C2.12334 9.29196 2.2672 9.43234 2.37385 9.59846C2.39357 9.62918 2.4395 9.62918 2.45923 9.59846C2.56587 9.43234 2.70973 9.29196 2.87998 9.18789C2.91147 9.16864 2.91147 9.12387 2.87998 9.10458C2.70973 9.00051 2.56587 8.86013 2.45923 8.69401C2.43946 8.66325 2.39357 8.66325 2.37385 8.69401V8.69401ZM7.97865 2.03403C7.872 2.20015 7.72815 2.34052 7.5579 2.44459C7.52641 2.46384 7.52641 2.50862 7.5579 2.52791C7.72815 2.63198 7.872 2.77236 7.97865 2.93848C7.99838 2.9692 8.04431 2.9692 8.06403 2.93848C8.17068 2.77236 8.31454 2.63198 8.48478 2.52791C8.51628 2.50866 8.51628 2.46389 8.48478 2.44459C8.31454 2.34052 8.17068 2.20015 8.06403 2.03403C8.04427 2.00331 7.99838 2.00331 7.97865 2.03403V2.03403ZM6.97752 18.6941C6.87087 18.8602 6.72701 19.0006 6.55677 19.1047C6.52528 19.1239 6.52528 19.1687 6.55677 19.188C6.72701 19.2921 6.87087 19.4325 6.97752 19.5986C6.99725 19.6293 7.04318 19.6293 7.0629 19.5986C7.16955 19.4325 7.31341 19.2921 7.48365 19.188C7.51515 19.1688 7.51515 19.124 7.48365 19.1047C7.31341 19.0006 7.16955 18.8602 7.0629 18.6941C7.04314 18.6634 6.99725 18.6634 6.97752 18.6941Z" fill="#717ED6"/>
<path d="M3.15272 13.0211C2.88228 13.1905 2.65377 13.419 2.48434 13.6895C2.45298 13.7395 2.3801 13.7395 2.34873 13.6895C2.17931 13.4191 1.9508 13.1905 1.6804 13.0211C1.63034 12.9898 1.63034 12.9168 1.6804 12.8855C1.9508 12.7161 2.17935 12.4875 2.34873 12.2171C2.3801 12.167 2.45298 12.167 2.48434 12.2171C2.65377 12.4875 2.88228 12.7161 3.15272 12.8855C3.20274 12.9168 3.20274 12.9897 3.15272 13.0211ZM18.8823 6.29453C18.7121 6.18788 18.5682 6.04402 18.4616 5.87378C18.4419 5.84228 18.3959 5.84228 18.3762 5.87378C18.2696 6.04402 18.1257 6.18788 17.9555 6.29453C17.924 6.31425 17.924 6.36019 17.9555 6.37991C18.1257 6.48656 18.2696 6.63046 18.3762 6.80066C18.3959 6.83216 18.4419 6.83216 18.4616 6.80066C18.5682 6.63042 18.7121 6.48656 18.8823 6.37991C18.9139 6.36019 18.9139 6.31425 18.8823 6.29453Z" fill="#40C1FA"/>
<path d="M19.6027 12.996C19.4325 13.1027 19.2886 13.2465 19.182 13.4168C19.1623 13.4483 19.1164 13.4483 19.0966 13.4168C18.99 13.2465 18.8461 13.1027 18.6759 12.996C18.6444 12.9763 18.6444 12.9304 18.6759 12.9106C18.8461 12.804 18.99 12.6601 19.0966 12.4899C19.1163 12.4584 19.1623 12.4584 19.182 12.4899C19.2886 12.6601 19.4325 12.804 19.6027 12.9106C19.6342 12.9304 19.6342 12.9763 19.6027 12.996ZM3.91004 17.2277C3.96079 17.1629 3.92972 17.0673 3.85057 17.0447L3.29043 16.8849C3.23913 16.8702 3.20445 16.8225 3.20639 16.7692L3.22748 16.1871C3.23045 16.1048 3.14915 16.0457 3.07181 16.074L2.52469 16.274C2.47458 16.2923 2.41847 16.274 2.38869 16.2298L2.06359 15.7464C2.01766 15.6781 1.91715 15.6781 1.87117 15.7464L1.54607 16.2298C1.5163 16.2741 1.46018 16.2923 1.41008 16.274L0.862957 16.074C0.785656 16.0458 0.704316 16.1048 0.707281 16.1871L0.728379 16.7692C0.730312 16.8225 0.695636 16.8702 0.644332 16.8849L0.0841914 17.0447C0.00504299 17.0673 -0.0260234 17.1629 0.0247227 17.2277L0.383941 17.6862C0.416855 17.7282 0.416855 17.7872 0.383941 17.8292L0.0247227 18.2878C-0.0260664 18.3526 0.00500002 18.4481 0.0841914 18.4707L0.644332 18.6306C0.695636 18.6452 0.730312 18.693 0.728379 18.7463L0.707281 19.3284C0.704316 19.4107 0.785613 19.4698 0.862957 19.4415L1.41008 19.2416C1.46018 19.2233 1.5163 19.2415 1.54607 19.2857L1.87117 19.7691C1.91711 19.8374 2.01761 19.8374 2.06359 19.7691L2.38869 19.2857C2.41847 19.2415 2.47458 19.2233 2.52469 19.2416L3.07181 19.4415C3.14915 19.4698 3.23045 19.4107 3.22748 19.3284L3.20639 18.7463C3.20445 18.693 3.23913 18.6452 3.29043 18.6306L3.85057 18.4707C3.92972 18.4481 3.96079 18.3526 3.91004 18.2878L3.55082 17.8292C3.51791 17.7872 3.51791 17.7282 3.55082 17.6862L3.91004 17.2277ZM15.5054 16.9652C15.4434 16.9838 15.3774 16.9932 15.309 16.9921C14.9634 16.9861 14.6818 16.7045 14.6759 16.3589C14.6747 16.2904 14.6842 16.2242 14.7029 16.1621C14.7112 16.1345 14.6812 16.111 14.6566 16.1259C14.47 16.2394 14.3456 16.4448 14.3464 16.6793C14.3476 17.0318 14.6362 17.3204 14.9887 17.3216C15.223 17.3224 15.4283 17.1982 15.5418 17.0119C15.5568 16.9871 15.5332 16.9569 15.5054 16.9652V16.9652ZM15.3333 5.74434C15.3484 5.71959 15.3247 5.68938 15.297 5.69772C15.2349 5.71628 15.169 5.72578 15.1006 5.72457C14.755 5.71869 14.4733 5.43703 14.4674 5.09143C14.4663 5.02289 14.4758 4.95677 14.4944 4.89459C14.5027 4.867 14.4727 4.8435 14.4481 4.8585C14.2615 4.97189 14.1371 5.17737 14.1379 5.41185C14.1391 5.76441 14.4277 6.05299 14.7802 6.05419C15.0144 6.05492 15.2198 5.93065 15.3333 5.74434V5.74434ZM8.7087 8.40608C8.64666 8.42465 8.5807 8.43414 8.51233 8.43294C8.16674 8.42705 7.88508 8.14539 7.87919 7.79979C7.87803 7.73126 7.88753 7.66513 7.90622 7.60295C7.91451 7.57537 7.88448 7.55186 7.85985 7.56686C7.67328 7.68025 7.54889 7.88573 7.54966 8.12021C7.55082 8.47277 7.83944 8.76135 8.192 8.76255C8.42631 8.76333 8.63166 8.63906 8.7451 8.45275C8.76009 8.428 8.73646 8.39779 8.7087 8.40608ZM5.72916 14.9913C5.66712 15.01 5.60116 15.0194 5.5328 15.0182C5.1872 15.0123 4.90554 14.7307 4.89965 14.3851C4.89849 14.3166 4.90799 14.2504 4.92668 14.1883C4.93497 14.1607 4.90494 14.1372 4.88032 14.1521C4.69375 14.2656 4.56935 14.471 4.57013 14.7055C4.57129 15.058 4.85991 15.3466 5.21247 15.3478C5.44677 15.3486 5.65212 15.2244 5.76556 15.0381C5.7806 15.0132 5.75692 14.983 5.72916 14.9913V14.9913Z" fill="#FFA90B"/>
<path d="M19.6864 19.2454C19.7234 19.2343 19.7549 19.2746 19.7348 19.3076C19.5835 19.556 19.3097 19.7217 18.9974 19.7206C18.5273 19.7191 18.1425 19.3343 18.141 18.8642C18.1399 18.5516 18.3058 18.2777 18.5545 18.1264C18.5874 18.1065 18.6274 18.1378 18.6164 18.1746C18.5915 18.2575 18.5788 18.3457 18.5804 18.437C18.5882 18.8978 18.9638 19.2734 19.4246 19.2812C19.5157 19.2828 19.6037 19.2702 19.6864 19.2454ZM5.04132 2.99604C5.07831 2.98496 5.10985 3.02522 5.08974 3.05822C4.93845 3.30666 4.66465 3.47231 4.35227 3.47128C3.88219 3.46969 3.4974 3.0849 3.49586 2.61487C3.49483 2.30223 3.66069 2.0283 3.90943 1.87705C3.94226 1.85711 3.98231 1.88844 3.97126 1.92522C3.94639 2.0081 3.93367 2.09632 3.93526 2.18767C3.94312 2.64847 4.31867 3.02401 4.77946 3.03188C4.87064 3.03342 4.9586 3.02079 5.04132 2.99604ZM16.078 1.39558C16.115 1.3845 16.1466 1.42476 16.1264 1.45776C15.9752 1.70621 15.7014 1.87185 15.389 1.87082C14.9189 1.86923 14.5341 1.48444 14.5326 1.01441C14.5315 0.701768 14.6974 0.427842 14.9462 0.276592C14.979 0.256654 15.0191 0.287979 15.008 0.32476C14.9831 0.407647 14.9704 0.495861 14.972 0.587213C14.9799 1.04801 15.3554 1.42356 15.8162 1.43142C15.9073 1.43297 15.9953 1.42033 16.078 1.39558ZM2.1753 18.7765L1.88672 18.6091C1.867 18.5977 1.84354 18.5946 1.82154 18.6004L1.4991 18.6861C1.45321 18.6983 1.40616 18.671 1.39395 18.6251L1.30827 18.3027C1.30243 18.2806 1.28804 18.2619 1.26836 18.2504L0.979777 18.083C0.938742 18.0592 0.924734 18.0066 0.948582 17.9655L1.11599 17.677C1.12742 17.6572 1.13055 17.6338 1.12471 17.6118L1.03903 17.2893C1.02683 17.2434 1.05416 17.1964 1.1 17.1842L1.42244 17.0985C1.44448 17.0927 1.46326 17.0783 1.47469 17.0586L1.6421 16.77C1.6659 16.729 1.7185 16.715 1.75957 16.7388L2.04815 16.9062C2.06788 16.9177 2.09134 16.9208 2.11334 16.915L2.43577 16.8293C2.48167 16.8171 2.52872 16.8444 2.54092 16.8902L2.6266 17.2127C2.63244 17.2347 2.64684 17.2535 2.66652 17.2649L2.9551 17.4323C2.99613 17.4561 3.01014 17.5087 2.98629 17.5498L2.81888 17.8384C2.80745 17.8581 2.80432 17.8816 2.81016 17.9036L2.89584 18.226C2.90804 18.2719 2.88072 18.319 2.83487 18.3312L2.51243 18.4168C2.49039 18.4227 2.47161 18.4371 2.46018 18.4568L2.29277 18.7453C2.26893 18.7864 2.21633 18.8003 2.1753 18.7765V18.7765ZM15.6354 16.677C15.6354 16.8016 15.6 16.918 15.5388 17.0165C15.4403 17.0778 15.3239 17.1131 15.1994 17.1131C14.8434 17.1131 14.5548 16.8245 14.5548 16.4686C14.5548 16.344 14.5902 16.2276 14.6514 16.1291C14.7499 16.0678 14.8663 16.0325 14.9909 16.0325C15.3468 16.0325 15.6354 16.3211 15.6354 16.677ZM15.4269 5.40951C15.4269 5.53408 15.3916 5.65044 15.3304 5.74901C15.2318 5.81024 15.1154 5.84556 14.9909 5.84556C14.6349 5.84556 14.3463 5.55698 14.3463 5.20103C14.3463 5.07646 14.3817 4.9601 14.4429 4.86153C14.5415 4.8003 14.6578 4.76498 14.7824 4.76498C15.1383 4.76498 15.4269 5.05356 15.4269 5.40951V5.40951ZM8.83868 8.11796C8.83868 8.24253 8.80332 8.35889 8.74213 8.45746C8.64356 8.51869 8.5272 8.55401 8.40264 8.55401C8.04668 8.55401 7.7581 8.26543 7.7581 7.90948C7.7581 7.78491 7.79347 7.66855 7.85465 7.56998C7.95322 7.50875 8.06958 7.47343 8.19415 7.47343C8.5501 7.47343 8.83868 7.76196 8.83868 8.11796V8.11796ZM5.85914 14.7032C5.85914 14.8277 5.82378 14.9441 5.76259 15.0427C5.66402 15.1039 5.54766 15.1392 5.42309 15.1392C5.06714 15.1392 4.77856 14.8506 4.77856 14.4947C4.77856 14.3701 4.81393 14.2538 4.87511 14.1552C4.97368 14.094 5.09004 14.0586 5.21461 14.0586C5.57056 14.0586 5.85914 14.3472 5.85914 14.7032Z" fill="#FFC14F"/>
<path d="M5.2146 2.61193C5.2146 2.77805 5.16746 2.93312 5.08587 3.06461C4.95443 3.1462 4.79931 3.19334 4.63319 3.19334C4.15856 3.19334 3.77382 2.8086 3.77382 2.33397C3.77382 2.16785 3.82095 2.01278 3.90255 1.88129C4.03399 1.79969 4.18911 1.75256 4.35523 1.75256C4.82986 1.75256 5.2146 2.13734 5.2146 2.61193ZM16.2513 1.01147C16.2513 1.17759 16.2042 1.33267 16.1226 1.46415C15.9911 1.54575 15.836 1.59288 15.6699 1.59288C15.1953 1.59288 14.8105 1.20814 14.8105 0.73351C14.8105 0.567393 14.8577 0.412318 14.9393 0.280834C15.0707 0.199236 15.2258 0.1521 15.3919 0.1521C15.8666 0.1521 16.2513 0.536885 16.2513 1.01147V1.01147ZM19.8597 18.8613C19.8597 19.0274 19.8126 19.1825 19.731 19.314C19.5995 19.3956 19.4444 19.4427 19.2783 19.4427C18.8036 19.4427 18.4189 19.058 18.4189 18.5833C18.4189 18.4172 18.466 18.2621 18.5476 18.1307C18.6791 18.0491 18.8342 18.0019 19.0003 18.0019C19.4749 18.0019 19.8597 18.3867 19.8597 18.8613ZM13.6726 11.8839C13.7189 11.8701 13.7583 11.9204 13.7332 11.9617C13.5441 12.2723 13.2018 12.4793 12.8113 12.478C12.2237 12.476 11.7427 11.995 11.7408 11.4075C11.7395 11.0167 11.9469 10.6742 12.2578 10.4852C12.2988 10.4603 12.3489 10.4994 12.3351 10.5454C12.304 10.6491 12.2881 10.7593 12.2901 10.8735C12.2999 11.4495 12.7693 11.9189 13.3453 11.9288C13.4592 11.9307 13.5692 11.9149 13.6726 11.8839V11.8839ZM2.98628 17.5498L2.81888 17.8383C2.80745 17.8581 2.80431 17.8815 2.81016 17.9035L2.89583 18.226C2.90804 18.2718 2.88071 18.3189 2.83486 18.3311L2.51242 18.4168C2.50649 18.4184 2.50078 18.4206 2.49541 18.4233C1.97055 18.1227 1.53879 17.6781 1.254 17.1432L1.42239 17.0985C1.44439 17.0927 1.46321 17.0783 1.47464 17.0586L1.64205 16.77C1.66585 16.729 1.71845 16.715 1.75948 16.7388L2.04806 16.9062C2.06778 16.9176 2.09124 16.9208 2.11324 16.9149L2.43568 16.8293C2.48153 16.8171 2.52862 16.8444 2.54083 16.8902L2.62651 17.2127C2.63235 17.2347 2.6467 17.2535 2.66642 17.2649L2.955 17.4323C2.99612 17.4561 3.01009 17.5087 2.98628 17.5498V17.5498Z" fill="#FFF36C"/>
<path d="M13.8892 11.4039C13.8892 11.6115 13.8303 11.8054 13.7283 11.9697C13.564 12.0717 13.3701 12.1306 13.1625 12.1306C12.5692 12.1306 12.0883 11.6496 12.0883 11.0564C12.0883 10.8487 12.1472 10.6549 12.2492 10.4906C12.4135 10.3885 12.6074 10.3296 12.815 10.3296C13.4083 10.3296 13.8892 10.8106 13.8892 11.4039Z" fill="#FFF79F"/>
</g>
<defs>
<clipPath id="clip0">
<rect width="22" height="22" fill="white"/>
</clipPath>
</defs>
</svg>
